<?xml version="1.0" encoding="UTF-8"?>
<svg version="1.1" xmlns="http://www.w3.org/2000/svg" width="100" height="100">
<path d="M0 0 C1.67736203 1.21002471 3.34014022 2.44064315 4.984375 3.6953125 C8.00456894 5.79149605 10.63762474 6.54543881 14.21875 7.24609375 C14.280625 8.35984375 14.3425 9.47359375 14.40625 10.62109375 C14.84183093 14.25947561 15.92420316 16.90152433 17.65625 20.12109375 C22.62809562 29.58921714 23.54478691 39.78933397 20.68798828 50.17578125 C17.20108108 61.26376267 17.20108108 61.26376267 15.21875 63.24609375 C15.06254445 64.65937322 14.96818827 66.07963965 14.90234375 67.5 C14.86044922 68.35400391 14.81855469 69.20800781 14.77539062 70.08789062 C14.73607422 70.98572266 14.69675781 71.88355469 14.65625 72.80859375 C14.59147461 74.16114258 14.59147461 74.16114258 14.52539062 75.54101562 C14.41896858 77.7758786 14.31695012 80.01085683 14.21875 82.24609375 C13.03901611 82.28367798 13.03901611 82.28367798 11.83544922 82.32202148 C8.25473506 82.43842241 4.6742555 82.56094862 1.09375 82.68359375 C-0.14375 82.72291016 -1.38125 82.76222656 -2.65625 82.80273438 C-3.85507813 82.84462891 -5.05390625 82.88652344 -6.2890625 82.9296875 C-7.38879395 82.96634521 -8.48852539 83.00300293 -9.62158203 83.04077148 C-12.73384216 83.24301308 -15.71360017 83.69655326 -18.78125 84.24609375 C-20.11263639 84.3293054 -21.44727736 84.37665197 -22.78125 84.37109375 C-23.4 84.37367187 -24.01875 84.37625 -24.65625 84.37890625 C-26.78125 84.24609375 -26.78125 84.24609375 -29.49462891 83.75756836 C-32.85548888 83.23454045 -36.09367609 83.03881401 -39.4921875 82.9296875 C-40.73613281 82.88779297 -41.98007812 82.84589844 -43.26171875 82.80273438 C-44.54691406 82.76341797 -45.83210938 82.72410156 -47.15625 82.68359375 C-48.46464844 82.64041016 -49.77304687 82.59722656 -51.12109375 82.55273438 C-54.34104797 82.44696946 -57.56107531 82.34487796 -60.78125 82.24609375 C-60.7905957 81.68212891 -60.79994141 81.11816406 -60.80957031 80.53710938 C-60.86382486 77.93927383 -60.94735683 75.34313456 -61.03125 72.74609375 C-61.04542969 71.85921875 -61.05960938 70.97234375 -61.07421875 70.05859375 C-61.30474261 63.78834469 -62.74587304 59.66539934 -65.78125 54.24609375 C-69.71884793 44.69773328 -69.19585566 32.6631973 -65.40625 23.18359375 C-64.93960938 22.16265625 -64.47296875 21.14171875 -63.9921875 20.08984375 C-62.82494622 17.3487094 -62.38393523 15.11945995 -62.03125 12.18359375 C-61.50837285 9.49590746 -61.26948578 8.5786448 -58.98046875 7.01953125 C-57.43148376 6.36141328 -55.85839582 5.75808727 -54.26953125 5.203125 C-51.62961931 4.18777425 -49.68960953 2.90410076 -47.40625 1.24609375 C-33.49090992 -8.19047078 -14.47763468 -9.1298567 0 0 Z M-49.78125 6.24609375 C-49.78125 6.57609375 -49.78125 6.90609375 -49.78125 7.24609375 C-32.29125 7.24609375 -14.80125 7.24609375 3.21875 7.24609375 C-1.39072826 2.49428319 -1.39072826 2.49428319 -6.78125 -0.00390625 C-7.60625 -0.3184375 -8.43125 -0.63296875 -9.28125 -0.95703125 C-23.47085378 -5.47996746 -38.02245348 -2.81727664 -49.78125 6.24609375 Z M-50.78125 10.24609375 C-47.00150747 14.02583628 -45.65390409 14.96752019 -40.84375 16.49609375 C-39.82410156 16.83125 -38.80445313 17.16640625 -37.75390625 17.51171875 C-34.9540973 18.20339297 -32.64788294 18.39391276 -29.78125 18.24609375 C-29.5646875 16.82296875 -29.5646875 16.82296875 -29.34375 15.37109375 C-28.78125 12.24609375 -28.78125 12.24609375 -27.78125 10.24609375 C-35.37125 10.24609375 -42.96125 10.24609375 -50.78125 10.24609375 Z M-17.78125 10.24609375 C-17.45125 12.88609375 -17.12125 15.52609375 -16.78125 18.24609375 C-11.34842044 18.5636416 -7.8479732 17.74538397 -2.96875 15.37109375 C-1.28845703 14.57058594 -1.28845703 14.57058594 0.42578125 13.75390625 C3.25950806 12.3962089 3.25950806 12.3962089 5.21875 10.24609375 C-2.37125 10.24609375 -9.96125 10.24609375 -17.78125 10.24609375 Z M-56.78125 13.24609375 C-58.13743499 14.3714348 -58.13743499 14.3714348 -57.84375 17.30859375 C-57.823125 18.27796875 -57.8025 19.24734375 -57.78125 20.24609375 C-52.11482449 21.47126683 -46.54416482 21.33838242 -40.78125 21.24609375 C-41.31234375 20.98054688 -41.8434375 20.715 -42.390625 20.44140625 C-47.1875 18.04296875 -51.984375 15.64453125 -56.78125 13.24609375 Z M2.53125 17.24609375 C1.04044922 18.08140625 1.04044922 18.08140625 -0.48046875 18.93359375 C-1.23972656 19.36671875 -1.99898438 19.79984375 -2.78125 20.24609375 C-2.78125 20.57609375 -2.78125 20.90609375 -2.78125 21.24609375 C2.16875 21.24609375 7.11875 21.24609375 12.21875 21.24609375 C11.88875 18.93609375 11.55875 16.62609375 11.21875 14.24609375 C7.49667613 14.24609375 5.75479411 15.42573943 2.53125 17.24609375 Z M-61.78125 21.24609375 C-65.71668257 30.99097441 -66.6218475 42.67657844 -63.28125 52.74609375 C-62.78625 53.90109375 -62.29125 55.05609375 -61.78125 56.24609375 C-61.45125 56.24609375 -61.12125 56.24609375 -60.78125 56.24609375 C-60.78125 44.69609375 -60.78125 33.14609375 -60.78125 21.24609375 C-61.11125 21.24609375 -61.44125 21.24609375 -61.78125 21.24609375 Z M14.21875 21.24609375 C14.21875 33.12609375 14.21875 45.00609375 14.21875 57.24609375 C19.16041759 49.83359236 20.03865645 40.48042405 18.6796875 31.8046875 C17.47472938 25.98922162 17.47472938 25.98922162 14.21875 21.24609375 Z M-57.78125 25.24609375 C-57.95525017 30.51122416 -58.0817591 35.77465583 -58.16577148 41.04199219 C-58.2008157 42.83070044 -58.24846801 44.61921046 -58.30932617 46.40722656 C-59.16137605 58.1252061 -59.16137605 58.1252061 -54.44140625 68.33984375 C-50.18399767 72.13479188 -50.18399767 72.13479188 -44.78125 73.24609375 C-44.47832031 72.37726563 -44.17539062 71.5084375 -43.86328125 70.61328125 C-40.32799152 60.88851503 -40.32799152 60.88851503 -37.28125 57.30859375 C-32.22631485 51.11629819 -29.63024136 42.16266257 -28.78125 34.24609375 C-29.63421678 30.4655033 -29.63421678 30.4655033 -30.78125 27.24609375 C-33.95178195 26.32950992 -36.90948862 26.05777336 -40.203125 25.9296875 C-41.74033203 25.8668457 -41.74033203 25.8668457 -43.30859375 25.80273438 C-44.37207031 25.76341797 -45.43554688 25.72410156 -46.53125 25.68359375 C-47.61019531 25.64041016 -48.68914063 25.59722656 -49.80078125 25.55273438 C-52.46081428 25.44680386 -55.12093812 25.34472954 -57.78125 25.24609375 Z M11.21875 24.24609375 C10.88875 24.57609375 10.55875 24.90609375 10.21875 25.24609375 C7.89028962 25.48666172 5.55504606 25.66257525 3.21875 25.80859375 C2.54046143 25.85250244 1.86217285 25.89641113 1.16333008 25.94165039 C-2.59971402 26.17065069 -6.32562299 26.26993381 -10.09375 26.18359375 C-13.81794837 25.81944405 -13.81794837 25.81944405 -15.78125 28.24609375 C-18.13365644 34.3623505 -16.87493179 40.33452164 -14.78125 46.24609375 C-14.42546875 47.38304688 -14.0696875 48.52 -13.703125 49.69140625 C-11.05684458 58.00072676 -7.94795944 65.55701137 -3.78125 73.24609375 C1.16486201 73.14515269 3.48806012 72.40683996 7.03125 68.87109375 C11.69047096 63.8600323 12.49938466 60.38303157 12.4140625 53.640625 C12.40981766 52.3818177 12.40981766 52.3818177 12.40548706 51.09757996 C12.39429385 48.41777272 12.36919101 45.73829994 12.34375 43.05859375 C12.33371908 41.24154129 12.32459343 39.42448358 12.31640625 37.60742188 C12.29435734 33.153517 12.25983351 28.69986208 12.21875 24.24609375 C11.88875 24.24609375 11.55875 24.24609375 11.21875 24.24609375 Z M-30.78125 56.24609375 C-32.14199202 58.2887021 -33.44222281 60.33918542 -34.71875 62.43359375 C-35.07904297 63.01173828 -35.43933594 63.58988281 -35.81054688 64.18554688 C-39.60805495 70.30997747 -39.60805495 70.30997747 -40.78125 77.24609375 C-39.3694717 77.78003554 -37.95154756 78.29774479 -36.53125 78.80859375 C-35.74234375 79.09863281 -34.9534375 79.38867188 -34.140625 79.6875 C-31.59021548 80.29132212 -30.22802771 80.09348695 -27.78125 79.24609375 C-28.43710189 75.63616996 -28.43710189 75.63616996 -29.78125 72.24609375 C-29.85306821 69.52849267 -29.87424506 66.83749987 -29.84375 64.12109375 C-29.83923828 63.36699219 -29.83472656 62.61289063 -29.83007812 61.8359375 C-29.81828499 59.97262248 -29.80034942 58.1093482 -29.78125 56.24609375 C-30.11125 56.24609375 -30.44125 56.24609375 -30.78125 56.24609375 Z M-17.78125 58.24609375 C-19.02040102 61.96354682 -18.96532713 65.43732756 -18.96875 69.30859375 C-18.98099609 70.04142578 -18.99324219 70.77425781 -19.00585938 71.52929688 C-19.01111299 73.43635882 -18.90343272 75.34294261 -18.78125 77.24609375 C-16.83890911 79.63394651 -16.83890911 79.63394651 -13.28125 79.43359375 C-9.93160297 79.48740612 -9.93160297 79.48740612 -7.78125 78.24609375 C-8.0982565 74.75902223 -9.07665155 72.65643136 -11.15625 69.93359375 C-13.9538415 66.25212551 -15.32313703 62.62043267 -16.78125 58.24609375 C-17.11125 58.24609375 -17.44125 58.24609375 -17.78125 58.24609375 Z M11.21875 67.24609375 C10.20377459 68.29429753 9.207272 69.36040667 8.21875 70.43359375 C4.36274781 74.37777895 0.13782009 76.82559894 -4.78125 79.24609375 C-4.78125 79.57609375 -4.78125 79.90609375 -4.78125 80.24609375 C0.82875 80.24609375 6.43875 80.24609375 12.21875 80.24609375 C12.21875 75.95609375 12.21875 71.66609375 12.21875 67.24609375 C11.88875 67.24609375 11.55875 67.24609375 11.21875 67.24609375 Z M-57.78125 68.24609375 C-57.78125 72.20609375 -57.78125 76.16609375 -57.78125 80.24609375 C-52.50125 80.24609375 -47.22125 80.24609375 -41.78125 80.24609375 C-43.10125 79.25609375 -44.42125 78.26609375 -45.78125 77.24609375 C-49.78125 74.24609375 -53.78125 71.24609375 -57.78125 68.24609375 Z M-24.78125 71.24609375 C-24.78125 72.89609375 -24.78125 74.54609375 -24.78125 76.24609375 C-24.45125 76.24609375 -24.12125 76.24609375 -23.78125 76.24609375 C-23.78125 74.59609375 -23.78125 72.94609375 -23.78125 71.24609375 C-24.11125 71.24609375 -24.44125 71.24609375 -24.78125 71.24609375 Z M-23.78125 76.24609375 C-22.78125 78.24609375 -22.78125 78.24609375 -22.78125 78.24609375 Z " fill="#7893a0" transform="translate(73.78125,11.75390625)"/>
</svg>
